<svg width="357" height="357" viewBox="0 0 357 357" fill="none" xmlns="http://www.w3.org/2000/svg">
<g id="Subtract" filter="url(#filter0_d_1231_1127)">
<path fill-rule="evenodd" clip-rule="evenodd" d="M100 174.082C100 130.969 134.95 96 178.064 96C221.177 96 256.127 130.969 256.127 174.082C256.127 217.196 221.177 252.165 178.064 252.165C134.95 252.165 100 217.196 100 174.082ZM150.298 162.891C149.523 156.768 151.254 150.718 155.169 145.859C159.248 140.794 165.089 137.831 171.204 137.145V131.816C171.204 129.043 173.521 126.795 176.381 126.795C179.241 126.795 181.558 129.043 181.558 131.816V138.194C184.038 139.004 186.42 140.227 188.596 141.876L197.471 148.599C199.725 150.307 200.123 153.46 198.363 155.646C196.602 157.832 193.349 158.218 191.097 156.512L182.223 149.789C176.373 145.359 167.898 146.368 163.328 152.039C161.114 154.786 160.137 158.206 160.576 161.667C161.014 165.128 162.815 168.217 165.648 170.362L178.294 179.945C180.548 181.652 180.947 184.807 179.188 186.993C178.166 188.261 176.644 188.921 175.105 188.921C173.992 188.921 172.868 188.575 171.922 187.858L159.276 178.275C154.26 174.477 151.073 169.014 150.298 162.891ZM183.195 161.626L195.485 171.207L195.487 171.211C205.541 179.05 207.329 193.592 199.474 203.626C195.509 208.691 189.835 211.653 183.892 212.338V217.667C183.892 220.44 181.64 222.687 178.861 222.687C176.083 222.687 173.83 220.44 173.83 217.667V211.287C171.421 210.477 169.105 209.254 166.992 207.605L158.371 200.882C156.181 199.175 155.792 196.02 157.503 193.835C159.214 191.649 162.374 191.263 164.564 192.97L173.187 199.693C175.573 201.552 178.41 202.453 181.225 202.453C185.117 202.455 188.968 200.733 191.546 197.442C193.695 194.694 194.646 191.275 194.22 187.814C193.794 184.354 192.043 181.265 189.29 179.12L177.002 169.538C174.812 167.83 174.425 164.676 176.136 162.491C177.845 160.305 181.005 159.918 183.195 161.626Z" fill="white"/>
</g>
<defs>
<filter id="filter0_d_1231_1127" x="0" y="0" width="356.127" height="356.165" filterUnits="userSpaceOnUse" color-interpolation-filters="sRGB">
<feFlood flood-opacity="0" result="BackgroundImageFix"/>
<feColorMatrix in="SourceAlpha" type="matrix" values="0 0 0 0 0 0 0 0 0 0 0 0 0 0 0 0 0 0 127 0" result="hardAlpha"/>
<feOffset dy="4"/>
<feGaussianBlur stdDeviation="50"/>
<feComposite in2="hardAlpha" operator="out"/>
<feColorMatrix type="matrix" values="0 0 0 0 0 0 0 0 0 0 0 0 0 0 0 0 0 0 0.1 0"/>
<feBlend mode="normal" in2="BackgroundImageFix" result="effect1_dropShadow_1231_1127"/>
<feBlend mode="normal" in="SourceGraphic" in2="effect1_dropShadow_1231_1127" result="shape"/>
</filter>
</defs>
</svg>
